<?xml version="1.0" standalone="no"?>
<!DOCTYPE svg PUBLIC "-//W3C//DTD SVG 20010904//EN"
 "http://www.w3.org/TR/2001/REC-SVG-20010904/DTD/svg10.dtd">
<svg version="1.0" xmlns="http://www.w3.org/2000/svg"
 width="499.000000pt" height="500.000000pt" viewBox="0 0 499.000000 500.000000"
 preserveAspectRatio="xMidYMid meet">

<g transform="translate(0.000000,500.000000) scale(0.100000,-0.100000)"
fill="#000000" stroke="none">
<path d="M2320 4994 c-758 -73 -1381 -415 -1821 -1000 -349 -464 -534 -1086
-491 -1646 58 -765 408 -1408 1006 -1855 730 -546 1710 -643 2544 -252 615
288 1096 835 1306 1488 251 777 111 1617 -376 2269 -403 537 -985 879 -1663
977 -108 16 -417 27 -505 19z m374 -37 c15 -1 0 -18 -55 -62 -267 -215 -503
-480 -726 -813 -83 -125 -99 -143 -118 -138 -41 10 -270 45 -380 58 -151 17
-640 17 -773 -1 -57 -7 -105 -11 -108 -8 -3 3 28 45 69 93 433 515 1084 840
1747 872 117 6 283 5 344 -1z m866 -233 l115 -56 -90 -23 c-334 -85 -691 -364
-1009 -790 -37 -49 -72 -91 -77 -93 -11 -4 -140 37 -153 48 -4 5 15 42 43 82
204 296 507 595 753 746 109 67 259 139 293 141 6 1 62 -24 125 -55z m379
-243 c67 -25 130 -73 265 -202 401 -383 657 -876 741 -1429 22 -147 30 -429
16 -575 -14 -141 -30 -245 -40 -245 -3 0 -28 33 -56 72 -137 200 -434 519
-650 697 -408 338 -918 643 -1397 836 -82 32 -148 62 -148 66 0 5 23 39 51 76
200 266 434 482 656 609 85 48 219 100 297 114 75 13 204 4 265 -19z m-2669
-631 c128 -10 405 -45 442 -56 16 -5 13 -15 -23 -86 -39 -78 -41 -80 -71 -74
-85 17 -281 38 -438 46 -296 17 -590 -11 -832 -79 -42 -11 -68 -14 -68 -8 0
17 104 196 116 201 27 10 272 48 361 55 144 12 359 12 513 1z m1129 -234 c6
-4 -8 -37 -35 -81 -42 -70 -46 -73 -72 -65 -15 5 -51 16 -79 25 -29 9 -53 20
-53 25 0 5 18 40 40 78 l40 70 75 -23 c40 -13 78 -26 84 -29z m426 -161 c822
-352 1549 -911 1933 -1488 38 -56 78 -119 91 -140 l23 -37 -31 -93 c-33 -98
-49 -129 -57 -111 -18 43 -146 255 -199 329 -418 584 -1152 1119 -1975 1440
-69 27 -126 50 -128 51 -3 2 42 81 73 128 l16 24 72 -28 c40 -15 122 -49 182
-75z m-1641 -275 c215 -14 249 -19 243 -39 -3 -9 -29 -81 -57 -161 -309 -869
-372 -1829 -168 -2533 10 -38 18 -71 15 -73 -2 -2 -49 26 -104 63 -682 458
-1093 1231 -1093 2053 0 177 17 338 40 375 101 164 408 287 780 314 152 12
179 12 344 1z m840 -151 c39 -12 72 -22 73 -23 1 -1 -18 -54 -43 -117 -138
-349 -238 -763 -279 -1152 -9 -85 -15 -239 -15 -364 0 -396 52 -693 170 -963
49 -114 98 -195 177 -292 59 -72 62 -78 39 -78 -21 0 -229 39 -232 43 0 1 -14
22 -31 47 -130 192 -234 510 -279 845 -21 159 -24 580 -5 760 45 429 148 845
320 1288 13 33 15 33 105 6z m421 -146 c185 -72 504 -230 685 -338 694 -416
1198 -977 1286 -1433 8 -41 14 -95 14 -122 0 -45 -4 -52 -73 -131 -399 -455
-944 -744 -1548 -824 -128 -17 -277 -8 -354 22 -320 122 -534 644 -535 1299 0
474 95 965 283 1462 59 156 30 149 242 65z"/>
</g>
</svg>
